<?xml version="1.0" encoding="UTF-8"?>
<svg xmlns="http://www.w3.org/2000/svg" width="640" height="400" viewBox="0 0 640 400" role="img">
  <defs>
    <linearGradient id="sky" x1="0" y1="0" x2="0" y2="1">
      <stop offset="0%" stop-color="#B8E4FF"/>
      <stop offset="100%" stop-color="#FFF9EF"/>
    </linearGradient>
  </defs>
  <rect width="640" height="400" fill="url(#sky)"/>
  
    <rect x="300" y="220" width="40" height="90" rx="8" fill="#8B5E3C"/>
    <circle cx="320" cy="80" r="36" fill="#FFC93C"/>
    <text x="320" y="86" text-anchor="middle" font-size="14" fill="#1A2E1F">Family</text>
    <path d="M320 116 L250 170 M320 116 L390 170 M250 170 L200 230 M250 170 L280 230 M390 170 L360 230 M390 170 L440 230" stroke="#2E9E5B" stroke-width="4"/>
    <circle cx="250" cy="170" r="24" fill="#7DDE9A"/>
    <circle cx="390" cy="170" r="24" fill="#7DDE9A"/>
    <circle cx="200" cy="230" r="18" fill="#3FA9F5"/>
    <circle cx="280" cy="230" r="18" fill="#3FA9F5"/>
    <circle cx="360" cy="230" r="18" fill="#3FA9F5"/>
    <circle cx="440" cy="230" r="18" fill="#3FA9F5"/>
</svg>
