<?xml version="1.0" encoding="UTF-8"?>
<svg xmlns="http://www.w3.org/2000/svg" width="640" height="400" viewBox="0 0 640 400" role="img">
  <defs>
    <linearGradient id="sky" x1="0" y1="0" x2="0" y2="1">
      <stop offset="0%" stop-color="#B8E4FF"/>
      <stop offset="100%" stop-color="#FFF9EF"/>
    </linearGradient>
  </defs>
  <rect width="640" height="400" fill="url(#sky)"/>
  
    <g>
      <rect x="40" y="80" width="120" height="160" rx="12" fill="#fff" stroke="#3FA9F5" stroke-width="3"/>
      <rect x="88" y="140" width="24" height="70" fill="#8B5E3C"/>
      <text x="100" y="270" text-anchor="middle" font-size="16" fill="#1A2E1F">1</text>
      <rect x="180" y="80" width="120" height="160" rx="12" fill="#fff" stroke="#3FA9F5" stroke-width="3"/>
      <rect x="228" y="150" width="24" height="60" fill="#8B5E3C"/>
      <circle cx="240" cy="130" r="35" fill="#7DDE9A"/>
      <text x="240" y="270" text-anchor="middle" font-size="16" fill="#1A2E1F">2</text>
      <rect x="320" y="80" width="120" height="160" rx="12" fill="#fff" stroke="#3FA9F5" stroke-width="3"/>
      <rect x="368" y="150" width="24" height="60" fill="#8B5E3C"/>
      <circle cx="380" cy="125" r="40" fill="#2E9E5B"/>
      <text x="380" y="270" text-anchor="middle" font-size="16" fill="#1A2E1F">3</text>
      <rect x="460" y="80" width="140" height="160" rx="12" fill="#fff" stroke="#FF6B5B" stroke-width="3"/>
      <rect x="515" y="150" width="28" height="60" fill="#8B5E3C"/>
      <circle cx="530" cy="120" r="45" fill="#2E9E5B"/>
      <circle cx="500" cy="140" r="28" fill="#00B8A9"/>
      <text x="530" y="270" text-anchor="middle" font-size="16" fill="#1A2E1F">4</text>
    </g>
</svg>
